{"title":"DIRTY POLITICS 2015 DVDSCR XVID AAC HINDI ","uid":11744488,"size":434517815,"categoryP":"video","categoryS":"movies_dvdr","magnet":"?xt=urn:btih:2d1b79d2a1edcc2dd04a42234aaf8dfe7f988cfb&amp;dn=DIRTY+POLITICS+2015+DVDSCR+XVID+AAC+HINDI+&amp;tr=udp%3A%2F%2Ftracker.openbittorrent.com%3A80&amp;tr=udp%3A%2F%2Fopen.demonii.com%3A1337&amp;tr=udp%3A%2F%2Ftracker.coppersurfer.tk%3A6969&amp;tr=udp%3A%2F%2Fexodus.desync.com%3A6969","seeders":8,"leechers":4,"uploader":"mbtorrents","files":1,"time":1425938986,"description":"Format : Flash Video \nFile size : 414 MiB \nDuration : 2h 10mn \nOverall bit rate : 443 Kbps \nTagging application : Yet Another Metadata Injector for FLV - Version 1.9 \n\nVideo \nFormat : AVC \nFormat/Info : Advanced Video Codec \nFormat profile : &lt;a class=&quot;__cf_email__&quot; href=&quot;/cdn-cgi/l/email-protection&quot; data-cfemail=&quot;1f577678775f532d312e&quot;&gt;[email&amp;#160;protected]&lt;/a&gt;&lt;script cf-hash='f9e31' type=&quot;text/javascript&quot;&gt;\n/* &lt;![CDATA[ */!function(){try{var t=&quot;currentScript&quot;in document?document.currentScript:function(){for(var t=document.getElementsByTagName(&quot;script&quot;),e=t.length;e--;)if(t[e].getAttribute(&quot;cf-hash&quot;))return t[e]}();if(t&amp;&amp;t.previousSibling){var e,r,n,i,c=t.previousSibling,a=c.getAttribute(&quot;data-cfemail&quot;);if(a){for(e=&quot;&quot;,r=parseInt(a.substr(0,2),16),n=2;a.length-n;n+=2)i=parseInt(a.substr(n,2),16)^r,e+=String.fromCharCode(i);e=document.createTextNode(e),c.parentNode.replaceChild(e,c)}}}catch(u){}}();/* ]]&gt; */&lt;/script&gt; \nFormat settings, CABAC : Yes \nFormat settings, ReFrames : 4 frames \nCodec ID : 7 \nDuration : 2h 10mn \nBit rate : 319 Kbps \nWidth : 640 pixels \nHeight : 272 pixels \nDisplay aspect ratio : 2.35:1 \nFrame rate mode : Constant \nFrame rate : 23.976 fps \nColor space : YUV \nChroma subsampling : 4:2:0 \nBit depth : 8 bits \nScan type : Progressive \nBits/(Pixel*Frame) : 0.076 \nStream size : 307 MiB (74%) \nWriting library : x264 core 135 \nEncoding settings : cabac=1 / ref=2 / deblock=1:0:0 / analyse=0x3:0x113 / me=hex / subme=4 / psy=1 / psy_rd=1.00:0.00 / mixed_ref=0 / me_range=16 / chroma_me=1 / trellis=1 / 8x8dct=1 / cqm=0 / deadzone=21,11 / fast_pskip=1 / chroma_qp_offset=0 / threads=18 / lookahead_threads=2 / sliced_threads=0 / nr=0 / decimate=1 / interlaced=0 / bluray_compat=0 / constrained_intra=0 / bframes=3 / b_pyramid=2 / b_adapt=1 / b_bias=0 / direct=1 / weightb=1 / open_gop=0 / weightp=1 / keyint=250 / keyint_min=23 / scenecut=40 / intra_refresh=0 / rc_lookahead=20 / rc=crf / mbtree=1 / crf=26.0 / qcomp=0.60 / qpmin=0 / qpmax=69 / qpstep=4 / vbv_maxrate=1200 / vbv_bufsize=4000 / crf_max=0.0 / nal_hrd=none / ip_ratio=1.40 / aq=1:1.00 \n\nAudio \nFormat : AAC \nFormat/Info : Advanced Audio Codec \nFormat profile : LC \nCodec ID : 10 \nDuration : 2h 10mn \nBit rate : 106 Kbps \nChannel(s) : 2 channels \nChannel positions : Front: L R \nSampling rate : 44.1 KHz \nCompression mode : Lossy \nDelay relative to video : 37ms \nStream size : 105 MiB (25%) \n\nScreens","torrent":{"xt":"urn:btih:2d1b79d2a1edcc2dd04a42234aaf8dfe7f988cfb","amp;dn":"DIRTY+POLITICS+2015+DVDSCR+XVID+AAC+HINDI+","amp;tr":["udp%3A%2F%2Ftracker.openbittorrent.com%3A80","udp%3A%2F%2Fopen.demonii.com%3A1337","udp%3A%2F%2Ftracker.coppersurfer.tk%3A6969","udp%3A%2F%2Fexodus.desync.com%3A6969"],"infoHash":"2d1b79d2a1edcc2dd04a42234aaf8dfe7f988cfb","infoHashBuffer":{"type":"Buffer","data":[45,27,121,210,161,237,204,45,208,74,66,35,74,175,141,254,127,152,140,251]},"announce":[],"urlList":[]}}